<?xml version="1.0" standalone="no"?>
<!DOCTYPE svg PUBLIC "-//W3C//DTD SVG 20010904//EN"
 "http://www.w3.org/TR/2001/REC-SVG-20010904/DTD/svg10.dtd">
<svg version="1.0" xmlns="http://www.w3.org/2000/svg"
 width="315.000000pt" height="315.000000pt" viewBox="0 0 315.000000 315.000000"
 preserveAspectRatio="xMidYMid meet">
<metadata>
Created by potrace 1.11, written by Peter Selinger 2001-2013
</metadata>
<g transform="translate(0.000000,315.000000) scale(0.100000,-0.100000)"
fill="#000000" stroke="none">
<path d="M2007 3023 c-15 -4 -16 -7 -6 -19 10 -12 10 -14 -1 -12 -7 2 -15 -3
-18 -11 -3 -9 0 -11 9 -6 8 5 3 -3 -11 -17 -14 -13 -28 -23 -33 -21 -4 3 -10
-3 -13 -11 -3 -8 -14 -18 -25 -21 -11 -4 -17 -11 -14 -16 3 -5 -2 -6 -11 -2
-13 5 -15 3 -9 -8 8 -12 6 -12 -8 0 -14 11 -17 11 -18 0 0 -8 -4 -5 -9 6 -7
17 -9 17 -9 3 -1 -12 -6 -15 -18 -11 -11 4 -14 3 -9 -5 5 -8 -1 -12 -18 -12
-14 0 -26 -6 -26 -12 0 -9 -4 -8 -10 2 -8 12 -10 10 -10 -8 0 -13 -4 -20 -10
-17 -5 3 -10 1 -10 -6 0 -8 -4 -8 -15 1 -8 7 -15 9 -15 4 0 -10 -110 -10 -135
0 -10 4 -14 2 -9 -5 4 -7 1 -10 -7 -7 -8 3 -13 11 -11 17 1 7 -2 10 -8 6 -5
-3 -10 0 -10 7 0 19 -40 20 -47 2 -3 -7 -9 -11 -14 -8 -5 3 -9 -1 -9 -8 0 -9
-3 -9 -10 2 -7 11 -10 11 -10 2 0 -7 -4 -10 -10 -7 -6 3 -7 -1 -4 -10 7 -17
-19 -17 -45 -1 -11 7 -13 5 -8 -7 4 -11 1 -15 -14 -12 -12 2 -19 -2 -19 -11 0
-8 -5 -12 -10 -9 -6 4 -17 1 -25 -5 -8 -6 -20 -8 -26 -4 -7 4 -10 3 -7 -2 6
-11 -28 -45 -37 -36 -4 4 -5 0 -3 -8 2 -8 -3 -14 -10 -12 -8 1 -11 -2 -7 -8 3
-5 -2 -10 -12 -10 -14 0 -15 -2 -4 -9 11 -7 11 -9 0 -14 -11 -4 -11 -6 0 -6
11 -1 10 -5 -5 -17 -10 -8 -13 -13 -6 -9 6 3 12 1 12 -4 0 -6 -7 -11 -16 -11
-8 0 -12 -4 -9 -10 3 -5 1 -10 -4 -10 -6 0 -11 -7 -11 -15 0 -8 -7 -15 -15
-15 -13 0 -14 -4 -4 -22 12 -22 11 -22 -6 -8 -17 14 -18 14 -6 -8 6 -12 9 -27
6 -32 -3 -5 -1 -11 5 -15 6 -4 7 -11 4 -17 -4 -6 -3 -8 2 -5 6 3 16 -3 23 -15
10 -16 10 -19 -1 -13 -7 4 -1 -4 14 -17 15 -14 24 -28 20 -32 -4 -4 -2 -7 3
-6 25 5 37 -1 31 -16 -3 -8 -2 -12 4 -9 6 3 10 1 10 -5 0 -6 5 -8 10 -5 6 3
10 -1 10 -9 0 -16 7 -19 42 -19 9 0 19 -6 22 -13 3 -7 0 -11 -7 -8 -8 3 -13
-4 -13 -16 0 -14 5 -19 15 -15 11 4 12 3 1 -10 -8 -10 -9 -15 -1 -15 6 0 11
-5 11 -11 0 -5 -5 -7 -12 -3 -6 4 -8 3 -5 -3 13 -21 16 -63 4 -60 -7 1 -11 -6
-11 -15 2 -15 -8 -23 -18 -16 -2 1 -14 -4 -27 -11 -14 -8 -21 -9 -17 -2 4 6 2
11 -4 11 -6 0 -9 4 -6 9 3 5 -1 11 -9 14 -10 4 -12 1 -8 -10 4 -11 2 -14 -8
-11 -8 3 -23 1 -34 -5 -17 -9 -18 -8 -8 5 10 12 10 15 -2 15 -8 0 -13 -2 -10
-5 13 -13 -18 -42 -46 -42 -21 0 -28 -4 -23 -12 6 -9 3 -9 -9 0 -9 8 -22 10
-28 6 -8 -5 -9 -3 -4 7 7 11 6 12 -7 2 -8 -7 -19 -9 -24 -5 -4 4 -2 -1 5 -11
12 -15 12 -20 1 -30 -7 -7 -10 -7 -7 -1 3 6 0 11 -6 11 -7 0 -14 -12 -15 -26
-1 -21 0 -23 9 -11 9 12 10 11 6 -7 -3 -12 -2 -22 2 -21 18 2 22 -4 11 -17
-11 -13 -10 -14 5 -9 14 6 16 4 7 -12 -5 -10 -8 -27 -7 -36 2 -12 -2 -15 -13
-11 -14 5 -13 2 3 -16 14 -16 15 -22 5 -19 -9 2 -14 -4 -14 -14 1 -10 -2 -16
-6 -13 -4 3 -10 -1 -12 -8 -7 -17 2 -38 13 -32 5 4 6 -1 3 -9 -3 -9 -10 -14
-14 -11 -9 6 -18 -25 -13 -42 3 -7 11 -13 18 -13 8 0 17 -5 21 -12 4 -7 3 -8
-4 -4 -8 5 -10 2 -6 -8 3 -9 11 -16 16 -16 6 0 19 -10 29 -22 13 -14 19 -16
19 -7 0 12 2 12 9 0 5 -8 16 -11 24 -8 8 3 24 -1 36 -9 11 -8 21 -11 21 -6 0
5 7 9 15 9 8 0 15 -4 15 -8 0 -5 8 -5 17 -2 13 5 15 2 10 -13 -7 -19 -7 -19 8
0 8 11 15 14 15 7 0 -7 5 -9 10 -6 6 3 20 3 31 0 17 -6 19 -9 8 -16 -12 -7
-11 -9 1 -9 12 -1 12 -3 -2 -11 -9 -5 -15 -16 -12 -23 3 -8 1 -17 -5 -21 -14
-8 -14 -45 0 -45 5 0 8 -4 4 -9 -7 -12 29 -33 40 -23 4 4 4 -3 1 -15 -6 -18
-4 -22 8 -17 9 3 16 1 16 -5 0 -6 -6 -11 -12 -11 -9 0 -10 -3 -2 -8 16 -10 9
-39 -13 -60 -10 -9 -13 -13 -5 -8 11 8 11 5 1 -17 -7 -15 -17 -24 -23 -20 -6
3 -5 0 2 -8 16 -17 15 -32 -1 -26 -18 7 -15 -26 4 -50 13 -16 13 -17 -3 -4
-12 9 -18 10 -18 2 0 -6 11 -16 25 -23 13 -6 23 -14 20 -17 -2 -4 6 -8 17 -8
26 -2 30 -7 22 -27 -4 -10 -13 -15 -21 -12 -8 3 -12 2 -9 -3 3 -5 -2 -15 -11
-22 -12 -10 -14 -10 -9 -1 4 6 3 12 -2 12 -6 0 -13 -7 -16 -16 -3 -9 -11 -12
-18 -8 -10 6 -10 4 0 -8 11 -14 10 -18 -5 -27 -13 -7 -14 -10 -4 -11 8 0 12
-3 8 -6 -7 -7 24 -41 31 -36 3 2 8 -2 13 -9 6 -10 11 -10 22 -1 11 10 16 9 24
0 21 -27 24 -38 10 -32 -8 3 -20 -3 -28 -13 -12 -16 -12 -17 1 -8 9 6 5 0 -8
-11 -18 -16 -22 -27 -17 -43 3 -12 11 -19 16 -16 5 4 9 0 9 -7 0 -10 2 -10 9
1 6 9 11 10 15 2 4 -6 4 -11 -1 -11 -4 0 0 -5 10 -11 12 -7 16 -17 12 -30 -4
-10 -2 -19 3 -19 5 0 8 -12 6 -26 -1 -16 2 -24 9 -21 9 3 12 -8 10 -37 -1 -22
-2 -41 -3 -41 -1 0 -3 -10 -6 -23 -3 -16 0 -21 8 -17 7 4 4 -1 -6 -9 -16 -13
-16 -16 -5 -16 16 0 19 -26 5 -48 -4 -7 -2 -12 5 -12 8 0 6 -7 -5 -19 -16 -17
-16 -20 -1 -35 9 -9 12 -16 5 -16 -6 0 -8 -5 -4 -12 4 -6 -1 -17 -11 -25 -11
-7 -15 -13 -11 -13 5 0 3 -7 -4 -15 -11 -13 -10 -14 5 -9 12 5 16 4 12 -3 -9
-15 3 -44 14 -37 5 3 9 -4 9 -16 0 -12 4 -19 8 -16 5 3 8 -5 7 -17 -1 -12 2
-27 6 -33 5 -6 8 -22 7 -35 -2 -18 2 -24 15 -23 20 2 22 -7 4 -25 -9 -11 -9
-13 1 -7 11 6 14 -9 12 -59 0 -3 9 -15 20 -27 11 -12 20 -25 20 -30 0 -4 5 -8
12 -8 6 0 3 10 -8 23 -12 14 -8 12 12 -6 27 -24 33 -26 43 -13 7 8 20 12 28 9
11 -4 14 -2 9 5 -4 8 0 12 11 12 15 0 16 2 3 10 -14 9 -7 15 14 11 5 -1 6 5 3
14 -4 9 -1 15 8 15 8 0 15 5 15 11 0 5 -6 7 -12 3 -10 -6 -10 -4 0 7 14 15 17
33 4 25 -5 -3 -9 1 -9 9 0 14 11 19 30 16 5 -1 6 3 2 9 -3 6 -12 8 -18 4 -7
-3 -3 2 7 10 11 9 16 16 12 16 -5 0 -3 7 4 15 10 12 10 15 -1 15 -11 0 -11 2
1 10 13 9 13 10 0 10 -12 0 -13 2 -1 9 11 7 11 9 0 14 -11 4 -11 6 -1 6 7 1
10 6 7 11 -3 6 -1 10 5 10 6 0 9 4 5 9 -3 5 0 13 6 16 5 4 8 13 5 20 -2 7 2
16 10 19 27 11 36 6 31 -14 -3 -11 -1 -23 5 -26 6 -4 5 -10 -3 -15 -11 -7 -10
-9 4 -9 9 0 17 -5 17 -11 0 -5 -6 -7 -12 -3 -10 6 -10 4 0 -7 6 -7 12 -24 12
-37 0 -16 4 -21 13 -16 8 5 8 2 -2 -9 -10 -13 -10 -17 -1 -17 10 0 10 -3 0
-15 -9 -11 -9 -15 -1 -15 7 0 9 -4 6 -10 -3 -5 -1 -10 4 -10 6 0 11 -5 11 -11
0 -5 -4 -7 -10 -4 -6 3 -7 -1 -4 -9 3 -9 10 -16 15 -16 5 0 9 -5 9 -11 0 -5
-6 -7 -12 -3 -9 5 -9 2 1 -9 11 -14 11 -17 0 -17 -11 0 -11 -2 1 -9 8 -6 18
-7 22 -5 4 3 5 -2 2 -10 -3 -9 -10 -13 -15 -10 -5 3 -6 -2 -3 -10 3 -8 12 -17
21 -20 12 -5 13 -9 3 -21 -9 -11 -9 -15 -1 -15 7 0 9 -5 5 -11 -3 -6 0 -15 7
-20 8 -5 149 -9 314 -9 237 1 297 3 285 13 -8 7 -15 19 -15 27 0 8 -6 14 -13
12 -8 -1 -11 2 -7 8 3 5 0 10 -7 10 -11 0 -10 2 0 9 11 6 10 10 -3 15 -10 3
-15 12 -11 21 5 14 -6 20 -28 16 -5 -1 -3 6 5 15 12 16 12 17 -3 11 -13 -4
-15 -2 -11 10 5 12 3 14 -8 8 -8 -4 -11 -5 -7 0 4 4 2 15 -5 23 -9 13 -9 14 1
8 6 -4 12 -2 12 3 0 6 -8 11 -17 12 -12 0 -13 2 -5 6 9 3 7 10 -9 24 -12 11
-19 25 -15 34 3 9 0 15 -11 15 -13 0 -13 3 -3 16 8 8 9 14 4 13 -24 -4 -32 2
-26 23 3 13 1 19 -5 15 -6 -4 -14 0 -17 9 -4 10 -2 13 7 8 9 -6 9 -5 0 8 -7 8
-9 18 -5 22 4 4 1 6 -7 4 -7 -2 -15 6 -17 16 -1 11 -10 23 -18 28 -9 5 -13 15
-9 25 5 12 3 14 -8 8 -8 -4 -11 -5 -7 0 4 4 2 15 -5 23 -9 13 -9 14 1 8 6 -4
12 -3 12 3 0 5 -8 15 -17 20 -13 8 -14 10 -4 11 11 0 10 4 -5 16 -10 8 -12 12
-4 8 13 -7 13 -5 2 9 -8 9 -10 22 -6 28 4 7 3 9 -3 6 -11 -7 -24 15 -28 46 -1
11 -7 22 -14 27 -9 5 -10 10 -2 14 6 4 11 13 11 19 0 7 -4 6 -10 -3 -7 -10
-10 -11 -11 -2 -4 33 -6 37 -16 35 -6 -1 -9 6 -6 17 3 12 0 20 -7 20 -7 0 -10
8 -8 18 3 11 -2 23 -13 30 -11 7 -15 18 -12 32 3 11 1 20 -5 20 -5 0 -13 7
-16 16 -3 8 -2 12 4 9 6 -3 10 -1 10 4 0 6 -8 11 -17 12 -11 0 -13 3 -6 6 10
3 9 8 -2 20 -8 8 -13 19 -10 24 4 5 3 9 -2 9 -4 0 -13 11 -20 25 -6 14 -7 23
-2 19 5 -3 9 0 9 5 0 6 -8 11 -17 11 -15 0 -16 2 -3 10 12 8 12 10 -5 11 -12
0 -15 3 -7 6 10 4 9 9 -5 20 -10 8 -11 11 -3 7 10 -5 8 1 -5 16 -11 13 -14 20
-7 16 6 -4 12 -2 12 3 0 6 -4 11 -10 11 -5 0 -10 9 -10 19 0 11 -6 22 -12 24
-10 4 -10 6 0 6 9 1 7 8 -6 21 -11 12 -18 32 -16 45 1 14 -3 23 -9 22 -6 -1
-13 8 -15 21 -2 12 -8 22 -13 22 -5 0 -9 7 -9 16 0 8 -4 13 -9 10 -5 -3 -14 8
-21 24 -7 16 -15 28 -19 26 -4 -3 -13 -1 -21 5 -13 7 -13 9 0 9 9 1 6 6 -9 14
-14 8 -25 23 -26 35 -1 11 0 19 3 16 7 -7 37 28 37 44 0 9 -5 22 -12 29 -7 8
-11 18 -8 23 4 5 1 9 -6 9 -8 0 -7 5 2 17 8 9 9 14 3 10 -7 -4 -15 0 -18 9 -3
8 -2 12 4 9 6 -3 10 -1 10 5 0 6 5 8 10 5 6 -3 10 -2 10 4 0 6 7 7 17 4 12 -5
14 -3 8 8 -6 9 -2 8 11 -3 17 -14 23 -15 51 -3 17 7 34 11 37 8 3 -4 6 -1 6 7
0 10 4 10 17 -1 9 -8 14 -9 10 -3 -4 7 0 15 9 18 10 4 13 2 7 -7 -4 -6 4 -4
17 5 14 9 24 21 23 27 -2 6 4 7 14 4 11 -4 14 -3 9 5 -4 7 -2 12 5 12 8 0 7 5
-2 17 -12 15 -12 16 5 10 14 -5 17 -3 12 8 -3 8 0 14 6 12 6 -1 13 4 16 12 2
8 0 11 -6 7 -6 -4 -8 2 -5 14 3 11 1 20 -5 20 -12 0 -37 60 -34 82 2 9 -2 20
-9 24 -8 5 -9 3 -4 -6 5 -9 4 -11 -4 -6 -6 4 -9 11 -6 16 3 5 1 12 -5 15 -8 5
-7 11 1 21 9 11 9 14 0 14 -8 0 -6 6 4 16 9 9 14 23 11 31 -3 8 -2 12 3 9 5
-3 11 1 14 8 3 8 1 17 -6 20 -8 3 -8 5 1 5 10 1 10 4 -2 16 -18 18 -32 19 -42
3 -5 -7 -3 -8 6 -3 9 5 11 4 6 -3 -8 -14 -42 4 -51 27 -5 12 -3 12 12 0 16
-12 15 -11 -1 8 -11 14 -27 21 -40 18 -11 -2 -23 -4 -26 -4 -3 -1 2 -6 10 -11
11 -8 8 -9 -13 -8 -18 2 -26 7 -22 16 3 10 -3 12 -23 10 -17 -2 -26 -8 -24
-17 2 -11 0 -12 -11 -3 -8 7 -17 9 -21 5 -4 -4 -9 3 -13 16 -3 12 -11 20 -17
18 -21 -8 -56 11 -50 28 3 8 2 15 -4 15 -12 0 -11 18 2 39 6 10 5 12 -2 7 -16
-9 -15 7 0 22 9 9 9 12 0 12 -6 0 -9 7 -6 15 4 8 11 12 18 8 6 -4 5 1 -3 11
-8 9 -10 16 -5 15 20 -3 35 1 30 10 -3 5 5 17 19 27 13 10 22 21 19 25 -2 4 7
10 21 13 14 4 25 10 25 15 0 4 11 24 24 44 13 19 22 38 18 41 -3 3 0 6 7 6 7
0 10 4 7 9 -3 5 1 12 10 15 13 5 14 9 4 21 -10 12 -10 15 1 15 11 0 11 2 -1
10 -12 8 -12 10 5 10 15 0 17 2 6 9 -10 6 -10 10 -1 16 6 4 9 13 6 21 -3 8 1
17 9 20 8 4 15 15 15 26 0 14 5 18 16 14 8 -3 12 -2 9 4 -3 6 -1 10 5 10 6 0
8 5 5 10 -3 6 1 10 10 10 9 0 13 5 10 10 -6 9 7 14 27 11 4 0 4 7 1 16 -5 13
-2 15 11 10 10 -4 15 -3 11 3 -3 6 1 13 9 16 9 3 14 10 11 14 -3 5 0 12 6 16
8 4 7 9 -2 15 -9 6 -10 9 -2 9 7 0 10 10 7 25 -2 14 0 25 6 25 6 0 9 4 6 9 -4
5 0 12 6 14 9 4 9 6 -1 6 -11 1 -10 5 5 16 10 8 15 15 9 14 -22 -3 -29 2 -15
11 13 8 12 10 -4 10 -12 0 -16 5 -12 15 3 8 4 14 3 14 -1 -1 -10 -3 -20 -6z
m-577 -366 c0 -2 -10 -12 -21 -23 -22 -19 -22 -19 -10 4 10 18 31 31 31 19z
m-115 -582 c0 -16 -6 -22 -21 -22 -16 0 -21 5 -19 21 1 11 3 21 4 21 23 7 36
0 36 -20z m359 19 c11 -4 13 -10 7 -18 -7 -8 -4 -12 12 -13 12 -1 27 -9 33
-17 6 -9 13 -14 15 -11 3 2 5 -4 5 -14 0 -14 -6 -18 -24 -15 -15 3 -21 1 -17
-6 4 -6 -3 -9 -17 -6 -17 2 -22 9 -20 26 2 13 -5 30 -18 42 -17 16 -19 22 -8
29 16 11 13 10 32 3z m110 -6 c-3 -4 2 -8 11 -8 10 0 13 -5 9 -12 -5 -8 -1 -8
12 2 10 8 16 11 12 6 -9 -11 10 -48 22 -41 4 3 7 -3 6 -12 -2 -9 -8 -19 -14
-21 -25 -8 -10 -20 19 -15 27 4 30 2 27 -19 -2 -13 -10 -23 -18 -23 -8 0 -17
-3 -20 -7 -3 -4 -12 -3 -19 1 -15 10 -24 81 -10 81 5 0 9 5 9 11 0 5 -5 7 -12
3 -7 -5 -8 -3 -3 6 6 10 4 11 -6 4 -23 -14 -39 -13 -39 4 0 8 -3 12 -7 9 -9
-10 -33 13 -27 27 2 6 15 12 29 12 13 0 21 -4 19 -8z m-629 -18 c-6 12 -5 13
5 3 11 -10 17 -10 29 0 12 10 13 9 7 -1 -7 -11 -4 -11 12 -1 16 10 23 10 36
-3 13 -13 13 -17 1 -21 -7 -3 -19 -16 -26 -29 -12 -22 -11 -22 6 -8 18 14 18
14 0 -17 -10 -18 -22 -30 -27 -27 -4 3 -8 0 -8 -7 0 -7 -9 -3 -21 9 -11 12
-17 26 -14 32 3 5 -1 12 -9 17 -14 8 -20 25 -17 52 1 11 4 11 18 0 15 -12 16
-12 8 1z m571 -1527 c-3 -8 -1 -11 4 -8 6 3 10 3 11 -2 0 -4 2 -16 4 -25 4
-24 -26 -32 -44 -12 -9 9 -10 14 -3 10 6 -4 12 -3 12 3 0 5 -9 12 -20 16 -20
6 -23 24 -6 36 15 11 47 -3 42 -18z"/>
<path d="M1815 2490 c-3 -6 1 -7 9 -4 18 7 21 14 7 14 -6 0 -13 -4 -16 -10z"/>
<path d="M1330 1000 c0 -5 5 -10 11 -10 5 0 7 5 4 10 -3 6 -8 10 -11 10 -2 0
-4 -4 -4 -10z"/>
<path d="M1575 80 c-3 -5 -1 -10 4 -10 6 0 11 5 11 10 0 6 -2 10 -4 10 -3 0
-8 -4 -11 -10z"/>
</g>
</svg>
